Poster: 
http://imgr.us/images/q0t8xr1dwsyjv6xn4zj.jpg

Info:
Format : AVI
Format/Info : Audio Video Interleave
Format profile : OpenDML
File size : 1.09 GiB
Duration : 2h 27mn
Overall bit rate : 1 060 Kbps
Movie name : GAJAPOKKIRI.Title2.DVDRip
Writing application : Lavf52.78.4
Original source form/Name : GAJAPOKKIRI

Video
ID : 0
Format : MPEG-4 Visual
Format profile : Advanced Simple@L5
Format settings, BVOP : 2
Format settings, QPel : No
Format settings, GMC : No warppoints
Format settings, Matrix : Default (H.263)
Muxing mode : Packed bitstream
Codec ID : DX50
Codec ID/Hint : DivX 5
Duration : 2h 27mn
Bit rate : 980 Kbps
Width : 720 pixels
Height : 316 pixels
Display aspect ratio : 2.25:1
Frame rate : 23.976 fps
Color space : YUV
Chroma subsampling : 4:2:0
Bit depth : 8 bits
Scan type : Progressive
Compression mode : Lossy
Bits/(Pixel*Frame) : 0.180
Stream size : 1.01 GiB (92%)
Writing library : XviD 1.2.1 (UTC 2008-12-04)

Audio
ID : 1
Format : MPEG Audio
Format version : Version 1
Format profile : Layer 3
Mode : Joint stereo
Mode extension : MS Stereo
Codec ID : 55
Codec ID/Hint : MP3
Duration : 2h 27mn
Bit rate mode : Constant
Bit rate : 64.0 Kbps
Channel(s) : 2 channels
Sampling rate : 48.0 KHz
Compression mode : Lossy
Stream size : 67.5 MiB (6%)
Alignment : Aligned on interleaves
Interleave, duration : 24 ms (0.58 video frame)
Interleave, preload duration : 24 ms
Writing library : LAME3.98.4

Screens: 
http://www.shotpix.com/images/95814183598801421583.jpg 
http://www.shotpix.com/images/40302909500881609829.jpg 
http://www.shotpix.com/images/43659811644306864447.jpg 
http://www.shotpix.com/images/85028555440073242936.jpg 
http://www.shotpix.com/images/45655453030230736456.jpg



